<?xml version="1.0" encoding="UTF-8" standalone="no"?>
<svg xmlns:dc="http://purl.org/dc/elements/1.1/" xmlns:cc="http://creativecommons.org/ns#"
  xmlns:rdf="http://www.w3.org/1999/02/22-rdf-syntax-ns#" xmlns:svg="http://www.w3.org/2000/svg"
  xmlns="http://www.w3.org/2000/svg" xmlns:sodipodi="http://sodipodi.sourceforge.net/DTD/sodipodi-0.dtd"
  xmlns:inkscape="http://www.inkscape.org/namespaces/inkscape" version="1.1" id="svg2" xml:space="preserve"
  width="3966.6667" height="2266.6667" viewBox="0 0 3966.6667 2266.6667" sodipodi:docname="5220.eps">
  <metadata id="metadata8">
    <rdf:RDF>
      <cc:Work rdf:about="">
        <dc:format>image/svg+xml</dc:format>
        <dc:type rdf:resource="http://purl.org/dc/dcmitype/StillImage" />
      </cc:Work>
    </rdf:RDF>
  </metadata>
  <defs id="defs6" />
  <sodipodi:namedview pagecolor="#ffffff" bordercolor="#666666" borderopacity="1" objecttolerance="10"
    gridtolerance="10" guidetolerance="10" inkscape:pageopacity="0" inkscape:pageshadow="2" inkscape:window-width="640"
    inkscape:window-height="480" id="namedview4" />
  <g id="g10" inkscape:groupmode="layer" inkscape:label="ink_ext_XXXXXX"
    transform="matrix(1.3333333,0,0,-1.3333333,0,2266.6667)">
    <g id="g12" transform="scale(0.1)">
      <path d="M 0,17000 V 0 H 29750 V 17000 H 0" style="fill:none;fill-opacity:1;fill-rule:nonzero;stroke:none"
        id="path14" />
      <path
        d="m 8840.26,1808.3 c 0,0 -4095.79,3703.4 -1789.21,8709.1 1106.64,2401.6 4053.75,2965.2 4947.15,2473.7 1177.9,-648 2740.3,1102.6 6117.2,2304.6 2538.2,903.4 8283.4,-938.6 6412.4,-6604.37 -1135,-3436.83 3233.9,-2532.73 2556.3,-6925.03 l -18243.84,42"
        style="fill:#fbecdb;fill-opacity:1;fill-rule:nonzero;stroke:none" id="path16" />
      <path d="M 10289.2,6250.8 V 1811 H 7037.82 v 4439.8 h 3251.38"
        style="fill:#f9ddbf;fill-opacity:1;fill-rule:nonzero;stroke:none" id="path18" />
      <path d="m 12814.9,6250.8 v -4440 h -2525.7 v 4440 h 2525.7"
        style="fill:#fff3e9;fill-opacity:1;fill-rule:nonzero;stroke:none" id="path20" />
      <path d="M 11115.6,8144.76 10050.3,5951.5 H 6813.9 l 1687.32,2185.25 2614.38,8.01"
        style="fill:#ed9f4a;fill-opacity:1;fill-rule:nonzero;stroke:none" id="path22" />
      <path d="M 11243.3,8144.76 10178.1,5951.5 H 6941.62 l 1687.33,2185.25 2614.35,8.01"
        style="fill:#f9ddbf;fill-opacity:1;fill-rule:nonzero;stroke:none" id="path24" />
      <path
        d="m 8658.01,7048.13 h -67.99 c -230.9,0 -418.1,-187.23 -418.1,-418.13 V 5567.6 h 890.61 v 1076 c 0,223.4 -181.1,404.53 -404.52,404.53"
        style="fill:#efcdaf;fill-opacity:1;fill-rule:nonzero;stroke:none" id="path26" />
      <path d="M 13166.7,5829.8 H 10229 l -1736.38,2314.99 977.49,-0.2 1909.59,-0.32 1787,-2314.47"
        style="fill:#ed9f4a;fill-opacity:1;fill-rule:nonzero;stroke:none" id="path28" />
      <path d="m 13166.7,5829.8 h -538.3 l -3158.29,2314.79 1909.59,-0.32 1787,-2314.47"
        style="fill:#e58638;fill-opacity:1;fill-rule:nonzero;stroke:none" id="path30" />
      <path d="M 8276.16,5338.9 7517.71,3777.5 H 5213.55 l 1201.29,1555.7 1861.32,5.7"
        style="fill:#ed9f4a;fill-opacity:1;fill-rule:nonzero;stroke:none" id="path32" />
      <path d="M 8345.2,5338.9 7586.77,3777.5 H 5282.6 l 1201.28,1555.7 1861.32,5.7"
        style="fill:#f9ddbf;fill-opacity:1;fill-rule:nonzero;stroke:none" id="path34" />
      <path
        d="M 7581.74,3777.5 V 2105.2 h -762.82 c -25.53,3.8 -38.52,6.3 -38.52,6.3 0,0 -389.29,0 -849.84,158 -211.24,72.5 -437.36,178.2 -647.92,332.3 v 1175.7 h 2299.1"
        style="fill:#f9ddbf;fill-opacity:1;fill-rule:nonzero;stroke:none" id="path36" />
      <path
        d="M 9528.61,3777.5 V 2418.1 c -139.08,-40.5 -273.5,-76.6 -403.15,-108.5 -446.12,-109.9 -835.53,-171.7 -1162.21,-204.4 h -381.51 v 1672.3 h 1946.87"
        style="fill:#fff3e9;fill-opacity:1;fill-rule:nonzero;stroke:none" id="path38" />
      <path d="M 9742.56,3685.1 H 7651.09 l -1236.28,1648.2 623,-0.1 1432.54,-0.3 1272.21,-1647.8"
        style="fill:#ed9f4a;fill-opacity:1;fill-rule:nonzero;stroke:none" id="path40" />
      <path
        d="M 6899.18,3430.8 V 2105.2 h -80.26 c -25.53,3.8 -38.52,6.3 -38.52,6.3 0,0 -389.29,0 -849.84,158 v 1145.3 c 0,143.6 61.38,272.8 159.4,362.7 87.58,80.6 204.47,129.6 332.9,129.6 126.44,0 241.43,-49.2 326.57,-129.6 92.24,-86.8 149.75,-210 149.75,-346.7"
        style="fill:#efcdaf;fill-opacity:1;fill-rule:nonzero;stroke:none" id="path42" />
      <path
        d="m 6306.14,4466.4 c 0,60 48.67,108.7 108.7,108.7 60.03,0 108.7,-48.7 108.7,-108.7 0,-60 -48.67,-108.7 -108.7,-108.7 -60.03,0 -108.7,48.7 -108.7,108.7"
        style="fill:#efcdaf;fill-opacity:1;fill-rule:nonzero;stroke:none" id="path44" />
      <path d="M 9742.56,3685.1 H 9345.63 L 7037.81,5333.2 8470.35,5332.9 9742.56,3685.1"
        style="fill:#e58638;fill-opacity:1;fill-rule:nonzero;stroke:none" id="path46" />
      <path
        d="m 20184.1,1810.8 c -1668.7,494.7 -3691.7,949.5 -5353.4,551.5 -1661.8,-397.9 -2300.3,-934.9 -4125.2,300.5 -165.6,112.1 -318.4,195.2 -461.5,254.6 322.2,58.4 752.8,160.4 562,263.6 -199,107.6 -532,-76.3 -724.5,-204.9 -48.2,14.7 -95.25,26.7 -141.39,36.1 439.69,314.8 1219.39,910.3 856.69,930.3 -357.8,19.8 -790.4,-577.8 -1001.55,-908.4 -36.19,3.5 -71.88,5.6 -107.09,6.2 -18.7,171.8 -87.46,476 -339.96,495 -258.11,19.4 46.68,-316.1 229.22,-497.9 -982.53,-65.3 -1647.59,-1180.8 -3710.66,-476.8 -316.91,108.1 -644.11,101.6 -952.43,34.8 -194.01,428.6 -770.07,1594.2 -1246.46,1473 -475.87,-121.2 702.84,-1130.5 1150.19,-1495.9 -53.27,-13.7 -105.83,-29.2 -157.57,-46 -270.85,199.7 -778.8,522.5 -1069,380.8 -283.65,-138.6 427.44,-336.8 890.3,-445.4 C 3864.51,2217.1 3404.5,1812 3404.5,1812 l 16779.6,-1.2"
        style="fill:#a8d29f;fill-opacity:1;fill-rule:nonzero;stroke:none" id="path48" />
      <path
        d="m 26302.8,1810.4 h -1941 c -104.9,88 71.1,288.8 255.4,302.4 80,6 180.9,-10.5 296.2,-35 26.8,354.9 179.4,1949.2 754,1885.3 646.3,-72 0,-702.3 -182.6,-1075.6 -135.4,-276.3 -278.3,-673 -343.3,-860.3 52.4,-11.3 106.7,-22.7 162.2,-32.8 85.5,263.1 404.3,1148 809.8,1096.5 476,-60.3 284.6,-415.1 -52.6,-625.8 -247.7,-154.8 -551.8,-375 -696.2,-481.3 122.4,-20 250.3,-33.2 379.9,-30.3 333.3,7.9 495.7,-90.6 558.2,-143.1"
        style="fill:#a8d29f;fill-opacity:1;fill-rule:nonzero;stroke:none" id="path50" />
      <path
        d="m 16088.3,12713.6 c 0,0 461.9,-218.6 566.8,-191 105,27.5 503.7,97.9 559.7,73.1 0,0 63.5,-101.3 15.6,-167.9 -47.9,-66.6 -435.8,-246.8 -576,-253.4 -140.1,-6.5 -672.1,89.9 -784.9,178.1 l 218.8,361.1"
        style="fill:#e8945b;fill-opacity:1;fill-rule:nonzero;stroke:none" id="path52" />
      <path
        d="m 17200.8,12593.7 c 0,0 178.1,74 236.5,-8.6 58.3,-82.7 91.3,-166.3 84.1,-208.7 -7.2,-42.3 -127.5,-60.9 -175.6,-28 -48.1,32.9 -167.2,78.9 -167.2,78.9 l 22.2,166.4"
        style="fill:#e8945b;fill-opacity:1;fill-rule:nonzero;stroke:none" id="path54" />
      <path
        d="m 18052.2,2225.6 c 0,0 -98.3,-159.1 -100.4,-343.7 -0.5,-41.1 33,-74.5 74.1,-74.5 h 613 c 59.4,0 103.1,55.8 88.5,113.3 -28.5,112.3 -89.6,281.9 -212,384.8 -195.4,164.3 -463.2,-79.9 -463.2,-79.9"
        style="fill:#163560;fill-opacity:1;fill-rule:nonzero;stroke:none" id="path56" />
      <path
        d="m 17082.3,2388.4 c 0,0 -35.2,-568.4 -145.2,-576.5 -14.6,-1.1 -557.7,-1.1 -557.7,-1.1 h -700.5 c 0,0 11.8,171.1 214.4,206.4 202.7,35.3 541.9,177.7 664.6,445.6 129.2,281.7 524.4,-74.4 524.4,-74.4"
        style="fill:#163560;fill-opacity:1;fill-rule:nonzero;stroke:none" id="path58" />
      <path
        d="m 17375.8,5899.5 c -24.5,-315.8 -27.7,-565 4.7,-683.2 144.6,-528.6 -260.6,-2915.4 -260.6,-2915.4 -298.6,-142.9 -722.8,1.5 -722.8,1.5 25.8,330.6 -131.4,3290.4 -277.7,5096.08 -61.2,758.05 -107.2,1288.45 -107.2,1288.45 l 1789.2,208.3 c 0,0 -340.9,-1899.13 -425.6,-2995.73"
        style="fill:#2b478b;fill-opacity:1;fill-rule:nonzero;stroke:none" id="path60" />
      <path
        d="m 17801.4,8895.23 c 0,0 -340.9,-1899.13 -425.6,-2995.73 l -1256.4,1498.98 c -61.2,758.05 -107.2,1288.45 -107.2,1288.45 l 1789.2,208.3"
        style="fill:#233862;fill-opacity:1;fill-rule:nonzero;stroke:none" id="path62" />
      <path
        d="m 16923.7,8490.22 c 0,0 905.7,-5273.52 1061.5,-6294.62 0,0 339.1,-94.7 685.5,52 0,0 44.8,2450.5 -73.7,3188.7 -118.6,738.2 63.1,3020.22 -127.9,3232.51 -191.1,212.27 -1545.4,-178.59 -1545.4,-178.59"
        style="fill:#2b478b;fill-opacity:1;fill-rule:nonzero;stroke:none" id="path64" />
      <path
        d="m 17017,12987.2 c 0,0 -69.5,-468.7 -39,-608.7 30.4,-140 496,-216.1 690.8,-100.4 194.7,115.6 136.2,158.6 136.2,158.6 0,0 -29.8,536.5 -57.1,574.8 -27.3,38.3 -730.9,-24.3 -730.9,-24.3"
        style="fill:#ffb27d;fill-opacity:1;fill-rule:nonzero;stroke:none" id="path66" />
      <path
        d="m 18515.4,10127.1 c 61.6,588.8 45.8,1031.9 -12.3,1365.2 -170.1,978.2 -703,1010.8 -703,1004.5 0,-131.6 -283.2,-253.1 -511.6,-238.2 -192.5,12.6 -317.4,159 -317.4,238.2 0,0.7 -3.6,0.6 -10.1,0 -49.8,-0.5 -278.2,-4.6 -494.2,-42 -156.5,-27.1 -306.4,-71.5 -376.8,-144.9 -36.4,-37.7 -165.9,-143.7 -332.4,-287.6 -423.8,-366.6 -1086.7,-980.2 -1057.4,-1345.8 0,0 819.3,-601.7 1338.5,-224.5 -28.2,-979.11 -205.9,-2016.16 -162.4,-2015.4 0,0 289.4,-250.61 1168.7,-250.61 480.8,0 828.4,41.17 1069.6,88.82 328.7,64.83 459.5,141.43 459.5,141.43 73.3,1.09 -80,1507.67 -58.7,1710.86"
        style="fill:#f99746;fill-opacity:1;fill-rule:nonzero;stroke:none" id="path68" />
      <path
        d="m 18574.1,8416.24 c 0,0 -130.8,-76.6 -459.5,-141.43 -454.2,201.23 -1356,721.29 -1391.2,1594.56 -46.8,1161.63 1371.4,1853.33 1371.4,1853.33 0,0 190.3,-105.7 408.3,-230.4 58.1,-333.3 73.9,-776.4 12.3,-1365.2 -21.3,-203.19 132,-1709.77 58.7,-1710.86"
        style="fill:#ed7d2b;fill-opacity:1;fill-rule:nonzero;stroke:none" id="path70" />
      <path d="m 17009.7,12934.4 c 0,0 180.6,-254.6 371.5,-256.9 191,-2.3 385.9,252.9 385.9,252.9 l -757.4,4"
        style="fill:#e8945b;fill-opacity:1;fill-rule:nonzero;stroke:none" id="path72" />
      <path
        d="m 16992.2,12947 c 50,-39.3 161.7,-93.7 253.1,-129.6 69.3,-27.2 146,-28.8 216.5,-4.6 105.3,36.4 264.9,93.2 305.3,117.6 95.6,57.9 89.5,175.3 94.4,338.4 5.9,193.1 25.3,344.7 3.8,456.1 -25.7,133.1 -110.1,208.9 -346.5,229.5 -433.9,37.6 -614.7,-71 -622.2,-216.5 -2,-39.1 -3.8,-76.3 -5.1,-111.6 -17.3,-453.7 18.5,-614.6 100.7,-679.3"
        style="fill:#ffb27d;fill-opacity:1;fill-rule:nonzero;stroke:none" id="path74" />
      <path
        d="m 16893.9,13684.3 c 0,0 71.1,104.7 204.6,63.7 133.6,-41.1 147.3,-155.2 375.5,-137 228.3,18.3 283,126.3 324.1,72.3 41.1,-54 64.9,-373.1 64.9,-373.1 0,0 458.9,1046.3 -471.3,1046.3 0,0 -958.5,57.9 -497.8,-1005.7 v 333.5"
        style="fill:#2c3a64;fill-opacity:1;fill-rule:nonzero;stroke:none" id="path76" />
      <path d="m 15203.9,12693.3 1.3,-0.7 c -1.1,-0.6 -1.3,0.7 -1.3,0.7"
        style="fill:#ffb27d;fill-opacity:1;fill-rule:nonzero;stroke:none" id="path78" />
      <path
        d="m 17344.6,9475.27 c 0,0 -121.7,-95.86 -299.7,-95.86 0,0 -181.6,200.12 -334.6,393.68 -99,125.35 -186,248.01 -204,311.71 -45.7,161.9 -899.9,207.6 -1004.6,321.7 -104.7,114.1 424.5,400.4 424.5,400.4 0,0 867.2,-132.6 997.6,-303 51.8,-67.8 129.1,-244.6 203.3,-432.8 112.2,-284.78 217.5,-595.83 217.5,-595.83"
        style="fill:#e8945b;fill-opacity:1;fill-rule:nonzero;stroke:none" id="path80" />
      <path
        d="m 16130.8,11852.8 c 0,0 164.4,319.1 245.6,309.8 81.2,-9.3 -186.6,-660.5 -211,-977 -24.3,-316.5 -34.6,667.2 -34.6,667.2"
        style="fill:#ed7d2b;fill-opacity:1;fill-rule:nonzero;stroke:none" id="path82" />
      <path
        d="m 16645.1,9655.95 c -114,-276.09 -261.7,-527.78 -280.6,-559.55 -1.3,-2.2 -2,-3.38 -2,-3.38 0,0 -0.9,0 -2.7,0 -27.6,0.27 -265.7,5.48 -289,101.06 0,0 -7.7,330.87 5.5,593.7 5.9,117.51 15.9,221.32 32.6,276.12 0,0 -1291.3,8.6 -1268.6,373.9 22.6,365.3 697.8,558.6 1085.9,369.1 0,0 514.6,-187 785.5,-434 133,-121.3 51.2,-432.1 -66.6,-716.95"
        style="fill:#ffb27d;fill-opacity:1;fill-rule:nonzero;stroke:none" id="path84" />
      <path
        d="m 14878.7,10950 c 0,0 -171.9,-252.7 -131.6,-488.5 40.3,-235.7 530.9,-361.7 874.2,-376.7 0,0 981.8,225 829.6,616.4 -34.6,88.7 -1572.2,248.8 -1572.2,248.8"
        style="fill:#2b478b;fill-opacity:1;fill-rule:nonzero;stroke:none" id="path86" />
      <path
        d="m 15235.3,14055.6 c 0,0 -156,319.2 -532.6,124 -376.7,-195.2 -10,-930.5 -207.7,-1114.3 -197.7,-183.8 71.7,-304.2 31.6,-435.9 -40.2,-131.8 74.4,-281.7 338,-264.1 263.6,17.6 541.2,3.4 660.3,234 119.1,230.6 92,738 46,809.4 -46,71.3 -335.6,646.9 -335.6,646.9"
        style="fill:#aa443e;fill-opacity:1;fill-rule:nonzero;stroke:none" id="path88" />
      <path
        d="m 15845.7,12306.1 -640.5,386.5 c 3.5,1.4 16.5,20.7 64.4,159.3 20.4,59 31.2,110.3 36.5,150.9 0.5,4.1 1.1,8 1.4,11.9 6.6,59.1 1.8,93.1 1.8,93.1 l 140.3,-50.7 259.5,-94 c -3,-65.8 6.2,-112.1 20.2,-143.9 33.9,-77.1 97,-77.7 98.8,-77.7 l 17.6,-435.4"
        style="fill:#ffb27d;fill-opacity:1;fill-rule:nonzero;stroke:none" id="path90" />
      <path
        d="m 15729.3,12819.2 c -250.8,-21.3 -392,142.3 -423.2,183.6 -4.6,6 -6.9,9.4 -6.9,9.4 0,0 3,0.9 8.3,2.5 20.4,6 75.8,22.7 142.1,42.4 l 259.5,-94 c -3,-65.8 6.2,-112.1 20.2,-143.9"
        style="fill:#ed985f;fill-opacity:1;fill-rule:nonzero;stroke:none" id="path92" />
      <path
        d="m 15741.9,12909.3 c 0,0 -557.2,-61.2 -568.6,315.6 -11.4,376.7 -93.8,549.1 291.7,582.7 385.5,33.6 476.6,-105.3 499.3,-232.8 71,-398.2 -65.5,-648.6 -222.4,-665.5"
        style="fill:#ffb27d;fill-opacity:1;fill-rule:nonzero;stroke:none" id="path94" />
      <path
        d="m 15495,13623.6 c -197.2,49.9 -121.8,-299.5 -171.6,-275.5 -55.8,26.7 -151.5,26.3 -136.4,-41 15.1,-67.3 36.9,-91.4 48.3,-133.4 11.4,-42 -0.1,-125.2 -45.9,-108.4 -45.9,16.7 -472.3,503.6 -171.2,882.9 301,379.2 1198.8,145.6 916.1,-251.1 -49.7,-69.8 -298.9,-109.1 -439.3,-73.5"
        style="fill:#aa443e;fill-opacity:1;fill-rule:nonzero;stroke:none" id="path96" />
      <path
        d="m 16210.5,10807.2 c 0,0 -167.4,-88.8 -431,-84.7 -167.9,2.6 -524.5,75.6 -753.8,158.3 -130.6,47 -220,97.3 -209.2,139.6 15.4,60.8 127.4,527.8 230.8,960 94.5,395.1 182,761.1 182,761.1 0,0 260.9,-185.4 413,-120 152.1,65.5 132.5,139.4 132.5,139.4 0,0 179.2,22 227.8,16.3 77.6,-9.1 351.7,-109.1 351.7,-109.1 0,0 36,-101.2 -59.5,-259.2 -79.2,-130.8 -156.1,-156.2 -156.1,-156.2 0,0 223.9,-706 71.8,-1445.5"
        style="fill:#739af0;fill-opacity:1;fill-rule:nonzero;stroke:none" id="path98" />
      <path
        d="m 15372.1,11437.6 c 0,0 160.9,30 223.8,-11.2 63,-41.2 81.6,-105.7 36.3,-132 -142,-82.6 -286,8.7 -286,8.7 l 25.9,134.5"
        style="fill:#ffb27d;fill-opacity:1;fill-rule:nonzero;stroke:none" id="path100" />
      <path
        d="m 15025.7,10880.8 c -130.6,47 -220,97.3 -209.2,139.6 15.4,60.8 127.4,527.8 230.8,960 30.5,56 49.9,89.4 49.9,89.4 0,0 196.2,-897 -71.5,-1189"
        style="fill:#4a82d3;fill-opacity:1;fill-rule:nonzero;stroke:none" id="path102" />
      <path
        d="m 15235.7,12691.1 c 0,0 -495.6,-104.9 -691.1,-875.4 -19.1,-75.5 0.6,-155.9 52.8,-213.7 89.8,-99.6 288,-245.3 748.8,-298.9 50.3,-5.8 57,121.8 57,121.8 -5,-10.2 -313,199 -444.1,311.4 -23.7,20.3 -22.7,63 -5.6,89.1 44.3,67.7 118.6,184.5 143.6,244.5 36.5,87.5 277.2,581.5 138.6,621.2"
        style="fill:#ffb27d;fill-opacity:1;fill-rule:nonzero;stroke:none" id="path104" />
      <path d="m 15229.3,12741.5 c 0,0 -291.4,-20.7 -529,-337.5 0,0 80.4,-291.5 457.9,-369.3 0,0 232.6,524.8 71.1,706.8"
        style="fill:#739af0;fill-opacity:1;fill-rule:nonzero;stroke:none" id="path106" />
      <path
        d="m 16645.1,9655.95 c -114,-276.09 -261.7,-527.78 -280.6,-559.55 -1.6,-1.1 -3.1,-2.2 -4.7,-3.38 -27.6,0.27 -265.7,5.48 -289,101.06 0,0 -7.7,330.87 5.5,593.7 37.9,-36.33 184.1,-144.79 568.8,-131.83"
        style="fill:#ebf2f9;fill-opacity:1;fill-rule:nonzero;stroke:none" id="path108" />
      <path
        d="m 17344.6,9475.27 c 0,0 -121.7,-95.86 -299.7,-95.86 0,0 -181.6,200.12 -334.6,393.68 172.2,74.41 354.1,238.51 416.8,298.01 112.2,-284.78 217.5,-595.83 217.5,-595.83"
        style="fill:#ebf2f9;fill-opacity:1;fill-rule:nonzero;stroke:none" id="path110" />
      <path
        d="m 16729.9,8735.88 c -5.3,-30.12 -35,-49.54 -65,-43.43 -71.4,14.55 -200.4,42.11 -253.9,61.58 -75.9,27.61 -221.4,113.61 -297.3,141.2 -26.1,9.5 -88.8,34.81 -129.3,51.3 -21.5,8.76 -33,32.28 -26.5,54.58 13.5,46.27 39.5,125.08 76.6,190.98 6.8,12.22 17.8,21.42 31.7,28.09 39.3,-31.58 101.4,-66.33 184.4,-66.66 68,-0.3 124.5,16.37 166.4,35.03 5.2,-10.57 108.7,-219.29 182,-245.95 65.9,-23.99 152.3,-86.98 130.9,-206.72"
        style="fill:#aa443e;fill-opacity:1;fill-rule:nonzero;stroke:none" id="path112" />
      <path
        d="m 17813.3,9472.8 c 14.4,-26.98 3.1,-60.61 -24.2,-74.38 -65,-32.78 -183.4,-91.04 -237.5,-108.88 -76.6,-25.32 -244.2,-47.97 -320.8,-73.28 -26.4,-8.7 -91.3,-27.66 -133.4,-39.83 -22.3,-6.45 -45.8,4.94 -54.5,26.47 -18.1,44.69 -46.5,122.67 -58.2,197.37 -2.2,13.83 0.8,27.85 7.5,41.67 50.5,-0.42 120.7,10.76 186.1,61.9 53.6,41.89 87.6,89.96 108.9,130.56 10.6,-5.1 221.2,-104.86 295.2,-80.41 66.7,22.01 173.5,26.04 230.9,-81.19"
        style="fill:#aa443e;fill-opacity:1;fill-rule:nonzero;stroke:none" id="path114" />
      <path
        d="m 16768.5,9890.21 c 0,0 -37.2,-215.36 -177.2,-314.51 0,0 -568.7,78.25 -1098.1,212.17 -389.2,98.43 -757.4,226.93 -862.6,376.53 -248.7,352.9 130.1,782.6 130.1,782.6 0,0 730.1,-352.3 1520.5,-784 161.9,-88.4 326.1,-180.12 487.3,-272.79"
        style="fill:#f99746;fill-opacity:1;fill-rule:nonzero;stroke:none" id="path116" />
      <path
        d="m 15912.9,9575.73 c 0,0 -169,-13.72 -232.9,-77.62 -63.9,-63.91 -160.7,-249.79 -91.7,-323.47 68.9,-73.68 397.6,87.83 406.7,114.34 9.1,26.53 -82.1,286.75 -82.1,286.75"
        style="fill:#ffb27d;fill-opacity:1;fill-rule:nonzero;stroke:none" id="path118" />
      <path
        d="m 16768.5,9890.21 c 0,0 -37.2,-215.36 -177.2,-314.51 0,0 -568.7,78.25 -1098.1,212.17 248.8,216.43 574,324.13 788,375.13 161.9,-88.4 326.1,-180.12 487.3,-272.79"
        style="fill:#ed7d2b;fill-opacity:1;fill-rule:nonzero;stroke:none" id="path120" />
      <path
        d="m 18697.9,12213.1 c -113.6,270 -861.3,280.3 -861.3,280.3 -380.5,-998.2 -471.9,-1652.9 -572.4,-2073.6 -16.3,1.6 -31.6,1.6 -45.5,-0.1 0,0 -534.4,-208.5 -1328.7,-785.3 0,0 -83.1,-227.76 66.1,-414.22 0,0 1368.6,302.07 1750.9,526.13 0.3,-0.06 0.6,-0.11 0.6,-0.11 3.8,2.43 7.6,4.89 11.4,7.34 5.8,3.58 11.4,7.14 16.6,10.68 1243.2,807.78 1124.9,2062.48 962.3,2448.88"
        style="fill:#f99746;fill-opacity:1;fill-rule:nonzero;stroke:none" id="path122" />
      <path
        d="m 15517.1,7423.54 c 0,0 383.7,-132.56 329.7,-574.54 0,0 -35.4,-179.4 -145.9,-99.9 -110.5,79.6 -58.7,64.9 -216.4,173.7 -157.8,108.79 -260.8,280.31 -242.8,416.56 l 275.4,84.18"
        style="fill:#ffb27d;fill-opacity:1;fill-rule:nonzero;stroke:none" id="path124" />
      <path
        d="m 15534.6,7395.14 -227.3,-275.77 c -10.5,-12.89 -27.3,-18.75 -43.6,-15.73 -213.1,39.13 -946.4,511.76 -1186.6,704.64 -26,20.9 -46.2,38.51 -59.4,51.93 -89.5,91.24 -398.3,541.47 -617.5,942.43 -126.2,230.93 -222.7,445.5 -230.3,565.74 -27.4,429.24 198.4,1029.52 198.4,1029.52 667.9,-232.5 738.2,-765.77 738.2,-765.77 l 370.3,-1378.07 1048.8,-783.87 c 23.9,-17.88 28,-52.1 9,-75.05"
        style="fill:#739af0;fill-opacity:1;fill-rule:nonzero;stroke:none" id="path126" />
      <path
        d="m 14077.1,7808.28 c -26,20.9 -46.2,38.51 -59.4,51.93 -89.5,91.24 -398.3,541.47 -617.5,942.43 -28.4,242.32 -8.9,469.62 90.9,628.52 0,0 567.8,-999.07 586,-1622.88"
        style="fill:#4a82d3;fill-opacity:1;fill-rule:nonzero;stroke:none" id="path128" />
      <path
        d="m 13692.3,3837.9 -113.5,-473.5 -70.3,-293 -233.9,-975.6 c 0,0 -200.2,-61.7 -408.3,0 0,0 -77.1,322.9 -79.3,725.5 -1.2,210.6 18.1,443.1 79.7,662.6 24.9,89.3 57,176.4 97.5,259.1 330,674.1 728.1,94.9 728.1,94.9"
        style="fill:#ffb27d;fill-opacity:1;fill-rule:nonzero;stroke:none" id="path130" />
      <path
        d="m 13886.2,1810.8 h -1099.3 c 0,0 -17.4,166.4 31,325.5 7.2,23.6 15.8,47.1 26.1,69.9 0,0 245.5,-55.7 457.1,0 0,0 199,-169.5 319.3,-221.4 120.2,-52.1 253.1,-23.8 265.8,-174"
        style="fill:#2b478b;fill-opacity:1;fill-rule:nonzero;stroke:none" id="path132" />
      <path
        d="m 13578.8,3364.4 -70.3,-293 c -119.5,-76.3 -377.3,-214.4 -721.5,-250.1 -1.2,210.6 18.1,443.1 79.7,662.6 101.1,51.3 204,78.1 291.6,62.8 218.2,-38 347.9,-117.8 420.5,-182.3"
        style="fill:#e8945b;fill-opacity:1;fill-rule:nonzero;stroke:none" id="path134" />
      <path d="m 13315.2,1810.8 h -528.3 c 0,0 -17.4,166.4 31,325.5 132.7,-41.3 402.6,-144.9 497.3,-325.5"
        style="fill:#1f396d;fill-opacity:1;fill-rule:nonzero;stroke:none" id="path136" />
      <path
        d="m 12816,3837.9 -113.5,-473.5 -70.3,-293 -233.9,-975.6 c 0,0 -200.2,-61.7 -408.3,0 0,0 -77.1,322.9 -79.3,725.5 -1.3,210.6 18.1,443.1 79.6,662.6 25,89.3 57.1,176.4 97.6,259.1 330,674.1 728.1,94.9 728.1,94.9"
        style="fill:#ffb27d;fill-opacity:1;fill-rule:nonzero;stroke:none" id="path138" />
      <path
        d="m 11967.7,2206.2 c 0,0 245.4,-55.7 457.1,0 0,0 199,-169.5 319.2,-221.5 120.3,-51.9 253.2,-23.7 265.9,-173.9 h -1099.3 c 0,0 -23,219.4 57.1,395.4"
        style="fill:#2b478b;fill-opacity:1;fill-rule:nonzero;stroke:none" id="path140" />
      <path
        d="m 12702.5,3364.4 -70.3,-293 c -119.5,-76.3 -377.4,-214.4 -721.5,-250.1 -1.3,210.6 18.1,443.1 79.6,662.6 101.1,51.3 204.1,78.1 291.7,62.8 218.2,-38 347.9,-117.8 420.5,-182.3"
        style="fill:#e8945b;fill-opacity:1;fill-rule:nonzero;stroke:none" id="path142" />
      <path
        d="m 13921.7,3395.8 c -26.4,-97.7 -115,-165.5 -216.3,-165.5 h -1762.6 c -132.8,0 -237.3,112.9 -227.1,245.1 18.5,240.1 84.6,632.2 113.4,897 12,110.1 17.5,198.1 10.6,244 -178,1177.3 -327.3,2563.99 -309.2,2829.07 2.6,37.31 4.4,56.58 4.4,56.58 0,0 128.4,10.83 323.7,18.42 567.6,22.41 1700.7,18.51 1889,-352.71 191.8,-378.16 307.6,-2888.96 307.6,-2888.96 28,-234.6 -71,-651.8 -133.5,-883"
        style="fill:#c65447;fill-opacity:1;fill-rule:nonzero;stroke:none" id="path144" />
      <path
        d="m 11829.1,4372.4 c 12,110.1 17.5,198.1 10.6,244 -178,1177.3 -327.3,2563.99 -309.2,2829.07 2.6,37.31 4.4,56.58 4.4,56.58 0,0 128.4,10.83 323.7,18.42 293.6,-172.97 484.7,-467.68 484.7,-467.68 0,0 -59.1,-2203.09 -514.2,-2680.39"
        style="fill:#b2443b;fill-opacity:1;fill-rule:nonzero;stroke:none" id="path146" />
      <path
        d="m 12923.7,12351.3 c -140.9,35.2 -222.7,-75.7 -222.7,-206.4 0,-130.6 106,-236.5 236.6,-236.5 130.7,0 236.6,151.3 236.6,282 0,130.6 -123.8,129.2 -250.5,160.9"
        style="fill:#b2443b;fill-opacity:1;fill-rule:nonzero;stroke:none" id="path148" />
      <path
        d="m 12851,10996.7 c 0,0 -733.6,660.6 -69.5,1128.3 0,0 198.1,52.8 298.9,34 0,0 360.9,105.6 572.1,-139.6 211.3,-245.2 303.1,-422.5 122,-641.2 -181,-218.8 -923.5,-381.5 -923.5,-381.5"
        style="fill:#c65447;fill-opacity:1;fill-rule:nonzero;stroke:none" id="path150" />
      <path
        d="m 12009.2,7006.72 c 0,0 181.1,-363.42 -167,-641.02 0,0 -150.9,-103.3 -174,30.9 -23.2,134.1 3.5,87.4 -32.9,275.5 -36.4,188.2 10.2,382.7 118.4,467.4 l 255.5,-132.78"
        style="fill:#ffb27d;fill-opacity:1;fill-rule:nonzero;stroke:none" id="path152" />
      <path
        d="m 13451.9,11002.8 c 0,0 -9.1,-98.9 -25.9,-232.6 -8.1,-65.3 -18.1,-139 -29.9,-213.4 -8.3,-53.5 -17.6,-107.4 -27.8,-159 l -227.1,-766.98 -533.3,862.98 c 0,0 125.4,103.7 295.2,665.6 1.6,6 2.8,9.3 2.8,9.3 l 546,-165.9"
        style="fill:#ffb27d;fill-opacity:1;fill-rule:nonzero;stroke:none" id="path154" />
      <path
        d="m 13762.6,7218.75 c 6.9,-86.2 -14.9,-101.87 -14.9,-101.87 0,0 -327.9,-118.88 -1152.6,-77.76 -89.2,4.46 -173.3,9.02 -251.8,13.67 -531.5,31.34 -815.7,64.09 -815.7,64.09 0,0 -435.3,1004.75 382.5,2242.69 92.5,139.94 201,282.92 327.9,427.71 132.5,151.05 161.7,353.12 211.9,545.22 14.3,55.1 -27.2,67.2 -6.5,119.2 0,0 149.1,42.1 164.5,42.1 84.7,-74.6 196.5,-219.7 473.8,-248.3 187.5,-19.6 260.9,86.1 287.6,149.4 71.4,-25.8 145.5,-70.5 206.2,-99.6 502.5,-241.2 548.6,-709.11 548.6,-709.11 0,0 -461.8,-1518.48 -490.4,-1708.07 -12.9,-84.32 93.1,-215.42 128.9,-659.37"
        style="fill:#739af0;fill-opacity:1;fill-rule:nonzero;stroke:none" id="path156" />
      <path
        d="m 13426,10770.2 c -8.1,-65.3 -35.8,-244.1 -47.5,-318.5 -564.7,220.1 -490.8,649.2 -475.4,707.7 1.6,6 2.8,9.3 2.8,9.3 0,0 298.7,-212.1 520.1,-398.5"
        style="fill:#e8945b;fill-opacity:1;fill-rule:nonzero;stroke:none" id="path158" />
      <path
        d="m 13547.1,10694.3 c 0,0 -652.3,-20.9 -659,385.5 -6.8,406.3 -95.6,677.3 320.6,707.9 416.1,30.5 499.6,-123.2 534.9,-258.3 35.2,-135.1 -27,-819.2 -196.5,-835.1"
        style="fill:#ffb27d;fill-opacity:1;fill-rule:nonzero;stroke:none" id="path160" />
      <path d="m 13604,11848.5 c 0,0 -40.9,-678.4 -836,-605.6 0,0 16.9,939.6 836,605.6"
        style="fill:#c65447;fill-opacity:1;fill-rule:nonzero;stroke:none" id="path162" />
      <path d="m 13451.9,11781.1 c 0,0 222.8,-275.8 323.8,-363.8 0,0 247.9,355.7 -323.8,363.8"
        style="fill:#c65447;fill-opacity:1;fill-rule:nonzero;stroke:none" id="path164" />
      <path d="m 13451.9,11781.1 c 0,0 200.1,-338.1 301.2,-426 0,0 270.5,417.9 -301.2,426 v 0"
        style="fill:#c65447;fill-opacity:1;fill-rule:nonzero;stroke:none" id="path166" />
      <path
        d="m 12343.3,7052.79 c -531.5,31.34 -815.7,64.09 -815.7,64.09 0,0 -435.3,1004.75 382.5,2242.69 165.6,-385.94 556.1,-1417.36 433.2,-2306.78"
        style="fill:#4a82d3;fill-opacity:1;fill-rule:nonzero;stroke:none" id="path168" />
      <path
        d="m 12607.9,10493.8 c 0,0 -630.9,-129.4 -912.1,-454.9 -215.3,-249.48 -451,-1468.96 -451,-1670.46 0,-192.54 221.4,-1216.3 359.5,-1412.54 9.6,-13.7 25.6,-21.2 42.2,-19.5 l 355.4,37.7 c 29.6,3.2 50.6,30.46 46.1,59.93 l -199.7,1294.11 700.8,1242.97 c 0,0 413.3,489.79 58.8,922.69"
        style="fill:#739af0;fill-opacity:1;fill-rule:nonzero;stroke:none" id="path170" />
      <path
        d="m 15314.8,2161.2 c 0,0 53.5,-104.3 171.9,-130.1 74.6,-16.3 138.5,-55.1 178.2,-109.5 33.6,-46.1 1.1,-110.8 -55.8,-110.8 h -601.2 c -51.2,0 -91.1,44.2 -86,95.1 4.5,44.6 9.2,96.4 11.2,136.2 4.4,86.8 91.4,156.7 91.4,156.7 l 290.3,-37.6"
        style="fill:#2c3a64;fill-opacity:1;fill-rule:nonzero;stroke:none" id="path172" />
      <path
        d="m 15451,3677.2 c 25.1,-457.1 -37.3,-1496.1 -37.3,-1496.1 0,0 -41.9,-115.8 -306.6,-143.5 -141.7,-14.8 -269.4,22 -269.4,22 -53.4,246 -102.8,481 -148.2,704.2 -326.8,1603.1 -454.2,2593.3 -454.2,2593.3 l 1289.8,299.8 c 0,0 -56.5,-905 -73.1,-1522.2 -5.2,-192.6 -6.5,-357.2 -1,-457.5"
        style="fill:#35488b;fill-opacity:1;fill-rule:nonzero;stroke:none" id="path174" />
      <path
        d="m 15525.1,5656.9 c 0,0 -56.5,-905 -73.1,-1522.2 l -762.5,-1370.9 c -326.8,1603.1 -454.2,2593.3 -454.2,2593.3 l 1289.8,299.8"
        style="fill:#2c3a64;fill-opacity:1;fill-rule:nonzero;stroke:none" id="path176" />
      <path
        d="m 14228.3,7729.67 c 0,0 -499.1,227.18 -876.7,28.44 C 12974,7559.36 13204.9,5919 13744.8,5760 v 0 c 0,0 1011.6,-323.5 483.5,1969.67"
        style="fill:#35488b;fill-opacity:1;fill-rule:nonzero;stroke:none" id="path178" />
      <path
        d="m 15518.9,5319 3.4,2 -1.7,-2.2 c -0.2,-0.2 -0.8,-0.1 -1.7,0.2 z m 153.2,-44.5 c -1.5,2.2 -3.1,4.3 -4.9,6.4 -11.9,18.1 -32,63.3 -46.8,98.3 v 0 c 100.4,491.5 32.9,775.7 32.9,775.7 11.9,143.1 97.3,1142.72 -99.4,1605.83 -94.9,223.45 -253.9,223.84 -253.9,223.84 0,0 37.3,-357 12.7,-548.9 -22.6,-176.15 145.3,-1826.97 173,-2096.77 -0.4,0.1 -0.8,0.1 -0.9,-0.1 l 8,-274.3 80.5,19 c 3.4,0.9 6.8,2.1 10,3.6 v 0 0 c 9.8,4.5 18.4,11.7 24.6,21.5 l 65,103 c 12.5,19.8 11.4,44.5 -0.8,62.9 v 0"
        style="fill:#e8945b;fill-opacity:1;fill-rule:nonzero;stroke:none" id="path180" />
      <path
        d="m 14268.3,2161.2 c 0,0 53.5,-104.3 171.9,-130.1 74.6,-16.3 138.5,-55.1 178.2,-109.5 33.6,-46.1 1.1,-110.8 -55.8,-110.8 h -601.2 c -51.2,0 -91.1,44.2 -86,95.1 4.5,44.6 9.2,96.4 11.2,136.2 4.5,86.8 91.4,156.7 91.4,156.7 l 290.3,-37.6"
        style="fill:#2c3a64;fill-opacity:1;fill-rule:nonzero;stroke:none" id="path182" />
      <path
        d="m 14686.5,9816.74 c -128.5,0 -290,-55.36 -376.7,-139.57 -92,-89.46 -187.8,-94.02 -256,-199.62 -71.1,-110.09 -115.1,-224.47 -79.4,-379.35 39,-169.18 31.1,-332.85 137.3,-457.06 52.7,-61.48 138.3,-68.44 198.1,-124.94 109.7,-103.71 234.4,-136.53 376.7,-136.53 268.2,0 435.2,158.88 572.4,356.87 110,158.63 88.2,265.56 114,401.25 81.3,427.08 -275,678.95 -686.4,678.95"
        style="fill:#35488b;fill-opacity:1;fill-rule:nonzero;stroke:none" id="path184" />
      <path
        d="m 15064.1,8095.12 -512.7,-262.03 -102.7,355.68 c 0,0 65.3,123.1 94.9,324.74 12.3,84.79 18.5,183.48 10.6,292.78 l 417.7,-213.91 c 0,0 -9.9,-38.61 -16.6,-95.62 -7.1,-61.58 -10.3,-144.64 7.2,-223.52 15.1,-67.73 45.4,-132.39 101.6,-178.12"
        style="fill:#ffb27d;fill-opacity:1;fill-rule:nonzero;stroke:none" id="path186" />
      <path
        d="m 13876.3,5517.7 c 0,0 -97.4,-1292 -75.7,-3351.1 0,0 117.6,-61.9 259.4,-76 264.8,-26.3 329.3,78.6 329.3,78.6 0,0 270.8,1005 338.5,1457.8 62.4,417.5 472.3,1923.9 472.3,1923.9 l -1323.8,-33.2"
        style="fill:#35488b;fill-opacity:1;fill-rule:nonzero;stroke:none" id="path188" />
      <path
        d="m 15403,8059.27 c -45.6,21.36 -188.9,79.24 -404,114.64 2.3,-73.71 -17.1,-143.08 -146.4,-160.01 -172.1,-22.43 -326,95 -403.9,174.84 0,-0.01 0,-0.01 0,-0.01 v 0.04 c 0,0 -121.3,-13.02 -262.8,-43.98 -70.8,-15.53 -146.6,-35.56 -214.8,-60.83 -82.6,-30.41 -154,-68.34 -192.1,-115.01 -0.1,-0.02 -0.1,-0.03 -0.1,-0.05 v -0.06 c -132.4,-162.49 -350.2,-651.85 -350.2,-651.85 0,0 362.5,-134.41 454,-212.85 l 2.1,-17.5 56.8,-471.24 -169,-938.7 c -1.5,-8.3 -2.3,-16.5 -2.3,-24.6 0,-62.7 42.9,-119.2 106,-134.3 0,0 14.5,-2.4 41.3,-6.1 179.2,-25.2 906.6,-112 1476.9,42.9 128.2,34.8 212.7,157.2 202.1,289.8 l -93,1166.76 c 49.7,8.52 106.9,17.55 153.5,22.74 38.7,4.19 69.8,5.64 82.7,1.77 0,0 -64.4,911.16 -336.8,1023.6"
        style="fill:#f99746;fill-opacity:1;fill-rule:nonzero;stroke:none" id="path190" />
      <path
        d="m 14326.8,6327.7 c -7.2,-327.5 -221.8,-712.3 -409.2,-816 -26.8,3.7 -41.3,6.1 -41.3,6.1 -63.1,15.1 -106,71.6 -106,134.3 0,8.1 0.8,16.3 2.3,24.6 l 169,938.7 -56.8,471.24 c 2.8,8.22 4.2,12.59 4.2,12.59 0,0 450.6,-192.93 437.8,-771.53"
        style="fill:#ed7d2b;fill-opacity:1;fill-rule:nonzero;stroke:none" id="path192" />
      <path
        d="m 15657.1,7033.9 c -47.8,-5.33 -153.8,-22.78 -153.8,-22.78 l -53.6,488.74 c 0,0 179.3,-344.51 207.4,-465.96"
        style="fill:#ed7d2b;fill-opacity:1;fill-rule:nonzero;stroke:none" id="path194" />
      <path
        d="m 13802.8,5844.3 43.9,243.8 c 743.4,1075.63 799.7,1268.58 465.4,1751.52 -95.8,138.3 -270,224.75 -341,244.34 68.2,25.27 144,45.3 214.8,60.83 70.6,-33.15 135.5,-65.73 185.8,-109.3 1020.4,-883.39 -568.9,-2191.19 -568.9,-2191.19"
        style="fill:#35488b;fill-opacity:1;fill-rule:nonzero;stroke:none" id="path196" />
      <path
        d="m 14670.9,7224.72 c -291,-20.13 -331.3,-318.42 -331.3,-318.42 0,0 -488.5,-44.3 -560.7,-76.4 0,0 39.6,107.2 110.1,269.31 -63.7,62.63 -273,155.79 -411.6,198.59 -105.7,-269.68 -146.4,-536.6 -87.1,-794 6.3,-27.2 30.2,-46.7 58,-48 155.5,-7.2 669.3,-4.6 1045.4,306.8 l 6.6,1.8 c 90.1,5.4 174.6,94.8 207.1,212.4 32.4,117.59 35,81.65 59.9,164.41 24.9,82.77 -96.4,83.51 -96.4,83.51"
        style="fill:#ffb27d;fill-opacity:1;fill-rule:nonzero;stroke:none" id="path198" />
      <path
        d="m 14962.5,8273.24 c -237.5,6.35 -418.9,240.27 -418.9,240.27 l 411.7,-16.75 c -7.1,-61.58 -10.3,-144.64 7.2,-223.52"
        style="fill:#e8945b;fill-opacity:1;fill-rule:nonzero;stroke:none" id="path200" />
      <path
        d="m 14985.1,8416.72 c 0,0 -524.8,-63.96 -536,305.79 -11.2,369.76 207.5,609.26 353.6,606.53 291.1,-5.46 339.1,-123.12 372.9,-245.63 33.7,-122.5 51.1,-640.63 -190.5,-666.69"
        style="fill:#ffb27d;fill-opacity:1;fill-rule:nonzero;stroke:none" id="path202" />
      <path d="m 14844.7,8629.83 c 0,0 11.5,-46.11 126.4,-37.6 0,0 96.5,7.1 93,57.88 0,0 -94.1,35.05 -219.4,-20.28"
        style="fill:#ffffff;fill-opacity:1;fill-rule:nonzero;stroke:none" id="path204" />
      <path
        d="m 14932.6,9325.61 c 0,0 -448.6,0.27 -345.5,-307.66 65,-194.07 -151,-224.25 -151,-224.25 l -104,311.07 65.1,242.34 535.4,-21.5"
        style="fill:#35488b;fill-opacity:1;fill-rule:nonzero;stroke:none" id="path206" />
      <path
        d="m 21026.8,9520.59 c -111.7,185.6 -181.1,1014.11 -261.8,1236.01 -50.9,140.3 -187.4,307.9 -173,318.3 -145.3,85.7 -538.2,126.9 -538.2,126.9 0,-0.3 -0.1,-0.6 -0.1,-0.9 -15.3,3.2 -30.6,6.4 -45.3,9.4 -47.1,9.5 -91.6,36.9 -96.9,84.7 -0.1,2.3 -0.4,4.8 -0.7,7.2 -6,58.7 -7.3,118.7 -6.6,170.7 0,0.7 0,1.5 0,2.2 1.3,85 7.8,148.1 7.8,148.1 l -1.6,0.2 -509.4,81.9 c -6.9,-159.1 -16.1,-277.5 -25.9,-365.8 -7.4,-67.5 -62.4,-120.1 -130.2,-124.2 -10.1,-0.6 -20.4,-1.2 -30.7,-1.9 v 0 c 0,0 -328.4,12.8 -454,-25.5 -9.9,-3 -20.5,-7.5 -31.9,-13.2 7.6,-8 -1209.4,-1227.81 -1178,-1369.08 31.4,-141.28 565.4,-943.45 759,-1091.27 h 193.8 c 0,0 -429.5,979.62 -435.1,1059.04 -8.2,116.27 1080.1,766.91 1080.1,885.51 0,43.2 303.4,56.2 501.8,54.7 210.1,-1.6 605.8,108.1 605.8,108.1 0,0 171.1,-1296.2 387.2,-1680.67 170.5,-303.19 923.5,-1080.01 923.5,-1080.01 l 158.9,140.87 c 0,0 -427.8,869.17 -698.5,1318.7"
        style="fill:#ffb27d;fill-opacity:1;fill-rule:nonzero;stroke:none" id="path208" />
      <path
        d="m 19484.9,4531.9 c 92,-905.4 -19.4,-2091 -19.4,-2091 h -312 c -471,1239 -485.2,2016.3 -512,2308.2 -14.7,159 -229.4,794.7 -422.1,1406.1 -161.1,510.5 -306.6,1004.17 -307.6,1189.14 -2.1,423.88 420.3,1103.78 420.3,1103.78 0,0 606.8,-234.09 981.3,-465.35 125,-77.23 220.7,-152.73 253.4,-216.73 86.8,-170.27 151.1,-1385.64 -79.9,-2128.04 -139.1,-447 -67.9,-676.2 -67.9,-676.2 28.9,-130.5 50.3,-276.1 65.9,-429.9"
        style="fill:#c65447;fill-opacity:1;fill-rule:nonzero;stroke:none" id="path210" />
      <path
        d="m 19486.9,5638 c -139.1,-447 -67.9,-676.2 -67.9,-676.2 28.9,-130.5 50.3,-276.1 65.9,-429.9 l -1265.5,1623.3 c -161.1,510.5 -306.6,1004.17 -307.6,1189.14 -2.1,423.88 420.3,1103.78 420.3,1103.78 0,0 606.8,-234.09 981.3,-465.35 125,-77.23 220.7,-152.73 253.4,-216.73 86.8,-170.27 151.1,-1385.64 -79.9,-2128.04"
        style="fill:#b2443b;fill-opacity:1;fill-rule:nonzero;stroke:none" id="path212" />
      <path
        d="m 19153.5,2440.9 c 0,0 -17.7,-203.5 -43.8,-245.4 -26.2,-41.8 -136.1,-183.1 -261.7,-230.2 -125.6,-47.1 -484.9,-22.7 -512.8,-153.3 h 1266.4 c 0,0 17.4,195.7 -31.4,324.5 -48.9,128.8 -104.7,304.4 -104.7,304.4 h -312"
        style="fill:#2b478b;fill-opacity:1;fill-rule:nonzero;stroke:none" id="path214" />
      <path
        d="m 21270.6,2486.7 c 0,0 141.6,-193.5 176.5,-270.2 34.9,-76.8 265,-401.7 237.2,-404.5 -27.9,-2.7 -641.9,0 -641.9,0 0,0 -62.8,153.3 -55.8,258 6.9,104.6 -83.8,303.3 -66.3,416.7 17.4,113.5 350.3,0 350.3,0"
        style="fill:#2b478b;fill-opacity:1;fill-rule:nonzero;stroke:none" id="path216" />
      <path
        d="m 21270.6,2486.7 h -350.3 c 0,0 -1365.9,1974.6 -1412.9,2476.7 -58.7,627.8 -497.4,3106.06 -497.4,3106.06 l 1401.1,436.21 c 0,0 122.5,-314.91 225.1,-632.45 44.7,-138.46 85.7,-277.44 111.1,-390.99 56.1,-250.67 -101.9,-1197.83 -209.6,-1871.23 -53.3,-331.6 -94.3,-596.9 -91.6,-679.8 8.1,-251.2 468.6,-283.8 824.5,-2444.5"
        style="fill:#c65447;fill-opacity:1;fill-rule:nonzero;stroke:none" id="path218" />
      <path d="m 19394,11567.8 c -0.7,-12.6 -1.5,-25 -2.4,-36.9 0.8,11.9 1.7,24.3 2.4,36.9"
        style="fill:#2b478b;fill-opacity:1;fill-rule:nonzero;stroke:none" id="path220" />
      <path d="m 19397,11620.1 c -0.7,-13.5 -1.4,-26.7 -2.2,-39.6 0.8,12.9 1.4,26.1 2.2,39.6"
        style="fill:#2b478b;fill-opacity:1;fill-rule:nonzero;stroke:none" id="path222" />
      <path d="m 19401.2,11705.3 c -0.5,-10 -0.9,-19.8 -1.4,-29.4 0.4,9.6 0.9,19.4 1.3,29.4 h 0.1"
        style="fill:#2b478b;fill-opacity:1;fill-rule:nonzero;stroke:none" id="path224" />
      <path
        d="m 20606.7,8175.63 c 45.7,-137.27 -613.6,-217.51 -1345.3,-207.82 -206.7,2.73 -398.9,27.88 -557.2,68.94 -334.9,86.61 -519.2,244.21 -372.2,411.32 41.9,47.52 505.6,711.2 505.6,711.2 27.4,59.4 -2.3,254.14 -143.9,716.88 -58,189.25 17.6,306.95 44.6,381.95 0,0 0,0.1 0.1,0.2 9.3,26.1 12.9,47 2.9,64.1 -63.3,109.5 -154.8,215 -237.6,299.2 -106.4,108.4 -198.7,181.1 -198.7,181.1 0,0 271.6,295.9 423.4,372 156.4,-164 495.6,-457.7 921.6,-461 367.6,-2.8 724.7,204.2 942.1,361.3 16.3,-9.6 29.6,-19.8 38.7,-30.5 135.8,-159.4 174.6,-447 174.6,-447 0,0 -437.2,-241.2 -429.4,-319.7 21.7,-216.4 42.2,-279.75 32.7,-357.02 l -0.1,-0.76 c -3.4,-27.13 -10.6,-56.11 -22.6,-94.1 -74.6,-234.18 -236,-595.85 -195.7,-717.66 10.5,-31.62 351,-735.51 416.4,-932.63"
        style="fill:#2b478b;fill-opacity:1;fill-rule:nonzero;stroke:none" id="path226" />
      <path d="m 18760.4,11188 c 7,2.1 14.7,4.1 22.9,5.9 -8.2,-1.9 -16,-3.9 -23,-6 l 0.1,0.1"
        style="fill:#ffb27d;fill-opacity:1;fill-rule:nonzero;stroke:none" id="path228" />
      <path d="m 19935,11246.8 c 10.7,-10.9 24.3,-19.6 39.2,-25.9 -14.9,6.3 -28.4,14.9 -39.2,25.9"
        style="fill:#ffb27d;fill-opacity:1;fill-rule:nonzero;stroke:none" id="path230" />
      <path d="m 19974.2,11220.9 c 5.5,-2.3 11.1,-4.4 16.9,-6.2 -5.8,1.7 -11.4,3.8 -16.9,6.2"
        style="fill:#ffb27d;fill-opacity:1;fill-rule:nonzero;stroke:none" id="path232" />
      <path
        d="m 21725.3,8201.89 c 0,0 267.7,-69.3 304.4,-106.69 36.6,-37.39 141.5,-327.75 104.6,-330.43 -191.8,-13.97 -293,88.96 -293,88.96 -116,127.66 -289.3,148.03 -280.7,241.47 8.6,93.43 164.7,106.69 164.7,106.69"
        style="fill:#ffb27d;fill-opacity:1;fill-rule:nonzero;stroke:none" id="path234" />
      <path
        d="m 18309.3,8714.35 c 0,0 -193.9,-244.88 -193.9,-289.37 0,-44.47 39.3,-230.24 86.4,-232.85 47.1,-2.63 62.8,151.75 99.4,180.53 36.6,28.78 167.5,82.89 185.8,133.01 18.3,50.14 16.1,208.68 16.1,208.68 h -193.8"
        style="fill:#ffb27d;fill-opacity:1;fill-rule:nonzero;stroke:none" id="path236" />
      <path
        d="m 19376.9,11355.3 c 240.7,30.9 533.7,268.1 533.7,268.1 -171,92.8 -319.4,101.7 -434.6,69.9 -27.5,-7.6 -53.1,-17.5 -76.8,-29.2 l -22.3,-308.8"
        style="fill:#e8945b;fill-opacity:1;fill-rule:nonzero;stroke:none" id="path238" />
      <path
        d="m 19289.7,11588.5 c 0,0 595.3,-198.6 713.3,174 118,372.6 274.3,597.9 -100.8,740.4 -375,142.7 -494.3,24 -563.9,-90.8 -69.6,-114.8 -200.4,-762.3 -48.6,-823.6"
        style="fill:#ffb27d;fill-opacity:1;fill-rule:nonzero;stroke:none" id="path240" />
      <path d="m 19503.3,11752.5 c 0,0 -22,-43.2 -134.3,-8.4 0,0 -94.4,29.3 -79.2,79 0,0 101.6,13.2 213.5,-70.6"
        style="fill:#ffffff;fill-opacity:1;fill-rule:nonzero;stroke:none" id="path242" />
      <path
        d="m 20886.9,12463.3 c -66.7,85.6 152.2,262.3 -292.4,474.6 -337.3,161.1 -441.8,-82.9 -472.7,-210.1 -200.5,114.4 -527.8,444.1 -736.6,229.3 -249.9,-257.1 21.2,-483.5 21.2,-483.5 94.8,-69 140.8,-49.9 279.4,-80.4 138.6,-30.4 50.1,-190.8 60.9,-244.9 10.8,-54 105.4,-163.4 233.6,-108.2 128.1,55.3 113.4,-155.9 -8.5,-199.3 -34.7,-12.4 -70.7,-206.5 -20.4,-214.7 42.3,-6.9 195,-8.3 210.6,116.3 9.2,74 103.2,112.6 202.9,189.1 68.9,-65.6 165.9,-99.1 219.4,-91.4 78.7,11.2 79.5,74.4 248.3,187 168.7,112.6 121,350.6 54.3,436.2"
        style="fill:#c65447;fill-opacity:1;fill-rule:nonzero;stroke:none" id="path244" />
      <path
        d="m 18704.2,8036.72 c -334.9,86.64 -519.2,244.22 -372.2,411.38 41.8,47.47 505.6,711.2 505.6,711.2 0,0 124.3,-749.46 -133.4,-1122.58"
        style="fill:#233862;fill-opacity:1;fill-rule:nonzero;stroke:none" id="path246" />
      <path
        d="m 20875.3,1811.3 -50.1,5370 c 0,0 -43.3,386.76 -380.7,386.76 -360.1,0 -380.7,-386.76 -380.7,-386.76 0,0 5.2,-33.43 42.1,-33.43 38.7,0 45.1,33.43 45.1,33.43 0,0 15.9,298.17 293.5,298.17 260.1,0 293.5,-298.17 293.5,-298.17 v -5370 h 137.3"
        style="fill:#233862;fill-opacity:1;fill-rule:nonzero;stroke:none" id="path248" />
      <path
        d="m 20691.7,1811.3 h 223.9 l -19.9,234.2 c 0,0 1.9,32.5 -43.4,34.3 -42,1.8 -125,7.7 -132.9,-17.7 -6.9,-22.3 -27.7,-250.8 -27.7,-250.8"
        style="fill:#233862;fill-opacity:1;fill-rule:nonzero;stroke:none" id="path250" />
      <path
        d="m 20441.7,7852.63 -15.3,-76.8 c 0,0 -379.7,1.44 -468.4,-405.42 0,0 -24.1,-169.3 98,-133.16 122,36.15 103,122.54 275.9,169.86 172.8,47.34 285.4,83.59 311.6,209.4 l 28.3,140.01 -230.1,96.11"
        style="fill:#ffb27d;fill-opacity:1;fill-rule:nonzero;stroke:none" id="path252" />
      <path
        d="m 21784.2,11182.2 c 0,0 -100.4,-395.2 -187,-756.4 -34.9,-145.6 -67.5,-285.5 -90.5,-392 -23.5,-109.35 -36.8,-183.39 -31.7,-191.59 75.3,-122.26 -62.3,-867.7 -171.1,-1138.39 -9.6,-24.01 -22.8,-52.13 -38.7,-83.36 -152.2,-298.35 -557.4,-883.93 -557.4,-883.93 0,0 -114.3,-11.96 -189,16.25 -62.4,23.65 -105,99.89 -105,99.89 36.2,58.33 182.8,747.25 371.5,1133.53 80.7,165.25 199.5,1698.4 355.8,1904.8 130.4,172.2 643.1,291.2 643.1,291.2"
        style="fill:#f99746;fill-opacity:1;fill-rule:nonzero;stroke:none" id="path254" />
      <path
        d="m 21475,9842.21 c 75.3,-122.26 -62.3,-867.7 -171.1,-1138.39 -9.6,-24.01 -22.8,-52.13 -38.7,-83.36 -145.4,643.38 95.6,1554.74 95.6,1554.74 60.1,-23.8 109.1,-324.79 114.2,-332.99"
        style="fill:#ed7d2b;fill-opacity:1;fill-rule:nonzero;stroke:none" id="path256" />
      <path
        d="m 22528.8,2402.8 c 0,0 38.7,-582.3 -71.3,-590.4 -14.6,-1.1 -557.7,-1.1 -557.7,-1.1 h -700.5 c 0,0 11.8,171.1 214.4,206.4 202.7,35.3 541.9,177.7 664.6,445.6 129.2,281.7 450.5,-60.5 450.5,-60.5"
        style="fill:#0f2949;fill-opacity:1;fill-rule:nonzero;stroke:none" id="path258" />
      <path
        d="m 23582.4,2402.8 c 0,0 38.7,-582.3 -71.2,-590.4 -14.7,-1.1 -557.8,-1.1 -557.8,-1.1 h -700.5 c 0,0 11.8,171.1 214.5,206.4 202.6,35.3 541.8,177.7 664.5,445.6 129.2,281.7 450.5,-60.5 450.5,-60.5"
        style="fill:#163560;fill-opacity:1;fill-rule:nonzero;stroke:none" id="path260" />
      <path
        d="m 22562,3806.3 c 17.2,-246.2 52.4,-562.8 39.8,-848.2 -17.5,-399.1 -30.1,-735.6 -30.1,-735.6 -263.1,-89.5 -745.9,19 -745.9,19 0,0 -171.2,1008.5 -312.3,1813.6 -63.2,360.7 -115.7,672.8 -135.4,820.1 -63.4,476.3 67.6,3008.69 67.6,3008.69 0,0 711.9,456.3 1006.1,221.02 294,-235.17 475.1,-465.07 1.2,-3041.91 -36,-195.5 70.4,-705.2 109,-1256.7"
        style="fill:#2b478b;fill-opacity:1;fill-rule:nonzero;stroke:none" id="path262" />
      <path
        d="m 22562,3806.3 c 17.2,-246.2 49,-640.3 36.5,-925.7 -247.5,262 -735.3,814.6 -1085,1174.5 -63.2,360.7 -115.7,672.8 -135.4,820.1 -63.4,476.3 67.6,3008.69 67.6,3008.69 0,0 711.9,456.3 1006.1,221.02 294,-235.17 475.1,-465.07 1.2,-3041.91 -36,-195.5 70.4,-705.2 109,-1256.7"
        style="fill:#233862;fill-opacity:1;fill-rule:nonzero;stroke:none" id="path264" />
      <path
        d="m 22089.1,7832.38 c 0,0 63.9,-2534.98 163.8,-3004.98 99.9,-470 621.3,-2621.6 621.3,-2621.6 0,0 488.8,-44.5 744.2,64.9 0,0 -16.3,996.4 -102.9,1581.9 -81,546.9 -226.2,1047 -205.4,1244.6 274.5,2605.64 76.4,2820.92 -235,3032.88 -311.3,211.95 -986,-297.7 -986,-297.7"
        style="fill:#2b478b;fill-opacity:1;fill-rule:nonzero;stroke:none" id="path266" />
      <path
        d="m 23055.2,7610.45 c 0,0 -169.3,-339.82 156.2,-599.5 0,0 141.2,-96.55 162.8,28.91 21.6,125.46 -3.3,81.75 30.7,257.69 34.1,175.94 -9.5,357.87 -110.7,437.07 l -239,-124.17"
        style="fill:#ffb27d;fill-opacity:1;fill-rule:nonzero;stroke:none" id="path268" />
      <path
        d="m 21627.8,11756.6 c 0,0 195.4,-297.1 156.5,-574.4 l 289.2,-696.9 521.8,797.8 c 0,0 -275.6,300.1 -378.5,709.1 l -589,-235.6"
        style="fill:#ffb27d;fill-opacity:1;fill-rule:nonzero;stroke:none" id="path270" />
      <path
        d="m 21542.1,11503.1 c 0,0 711.7,-30.8 724.7,396.5 12.9,427.3 205.3,711.5 -327.1,749.1 -437.8,30.8 -583.4,-151.7 -622.4,-293.3 -39,-141.6 -39.1,-829.4 224.8,-852.3"
        style="fill:#ffb27d;fill-opacity:1;fill-rule:nonzero;stroke:none" id="path272" />
      <path
        d="m 23284.6,7710.23 c -152.9,-14.23 -363.5,-31.86 -618.9,-47.93 -51,-3.19 -103.8,-6.38 -158.3,-9.39 -771.3,-43.18 -1077.9,81.71 -1077.9,81.71 0,0 -20.4,16.51 -13.9,107.09 33.5,466.43 132.5,604.2 120.6,692.84 -26.9,199.22 -510.2,1824.95 -510.2,1824.95 0,0 -9.3,513.5 561.8,754.6 58.9,24.9 123.8,46.8 195.6,65 25,-66.5 93.6,-177.5 269,-157.1 259.2,30.3 443.8,183.1 523,261.5 14.3,0 20,-0.5 20,-0.5 19.3,-54.6 34.4,-111.5 47.8,-169.4 46.9,-201.9 74.3,-414.2 198.1,-573 122.3,-156.7 226.9,-311.3 316.2,-462.5 74.3,-125.8 138,-249.33 192.5,-369.65 505.6,-1117.47 114.5,-1981.32 -65.4,-1998.22"
        style="fill:#f99746;fill-opacity:1;fill-rule:nonzero;stroke:none" id="path274" />
      <path
        d="m 23284.6,7710.23 c -152.9,-14.23 -363.5,-31.86 -618.9,-47.93 -74.5,1255.42 437,2461.2 437,2461.2 19.3,-13.5 37.5,-28.7 54.8,-45.4 89.1,-86.54 151.2,-214.99 192.5,-369.65 152.4,-569.24 24.9,-1494.08 -65.4,-1998.22"
        style="fill:#ed7d2b;fill-opacity:1;fill-rule:nonzero;stroke:none" id="path276" />
      <path
        d="m 21312.6,11910.6 c 0,0 -138.6,-549.7 96.6,-627.1 235.1,-77.4 859.4,-15.4 859.1,658.6 0,0 -327.6,-195.4 -484,-190.5 -156.5,5 -257.5,95.3 -402.2,24.7 0,0 -52.9,3.5 -69.5,134.3"
        style="fill:#c8d9e8;fill-opacity:1;fill-rule:nonzero;stroke:none" id="path278" />
      <path
        d="m 22595.3,11283.1 c 0,0 497.6,-11.2 760.5,-353.2 201.4,-262.1 414.3,-1668.42 414.3,-1880.17 0,-211.75 -226.8,-1380.34 -353.7,-1507.32 0,0 -82.2,-21.18 -191.9,0 -116.4,22.48 -184.9,89.82 -184.9,89.82 0,0 63.2,1301.04 63.2,1423.08 0,176.68 -552.4,1258.19 -552.4,1258.19 0,0 -286.5,514.7 44.9,969.6"
        style="fill:#f99746;fill-opacity:1;fill-rule:nonzero;stroke:none" id="path280" />
      <path
        d="m 22233.3,12515.8 c -12,43.6 -65.7,66.5 -65.7,66.5 -400.9,174.6 -693.8,-16.4 -693.8,-16.4 245.7,329.8 838.7,260.5 963.6,-37 204,-485.7 -169.1,-586.8 -169.1,-586.8 0,0 -372.5,156.5 -156.8,352.7 71.5,65 106.1,122.9 117.5,173.1 v 0 0 c 3.9,16.8 5.1,32.8 4.3,47.9"
        style="fill:#c8d9e8;fill-opacity:1;fill-rule:nonzero;stroke:none" id="path282" />
      <path d="m 21598.2,11649.2 c 0,0 -13.1,-46.7 -130.2,-34.5 0,0 -98.2,10.2 -93,61.9 0,0 97.1,32.9 223.2,-27.4"
        style="fill:#ffffff;fill-opacity:1;fill-rule:nonzero;stroke:none" id="path284" />
      <path
        d="M 27453.4,1739.6 H 2483.41 c -16.15,0 -29.37,13.2 -29.37,29.4 v 12.4 c 0,16.2 13.22,29.4 29.37,29.4 H 27453.4 c 16.1,0 29.4,-13.2 29.4,-29.4 V 1769 c 0,-16.2 -13.3,-29.4 -29.4,-29.4"
        style="fill:#2e3552;fill-opacity:1;fill-rule:nonzero;stroke:none" id="path286" />
    </g>
  </g>
</svg>